<?xml version="1.0" encoding="utf-8"?>
<!-- Generator: Adobe Illustrator 25.0.0, SVG Export Plug-In . SVG Version: 6.00 Build 0)  -->
<svg version="1.1" xmlns="http://www.w3.org/2000/svg" xmlns:xlink="http://www.w3.org/1999/xlink" x="0px" y="0px"
	 viewBox="0 0 1920 1080" style="enable-background:new 0 0 1920 1080;" xml:space="preserve">
<style type="text/css">
	.st0{fill:#151313;}
	.st1{fill-rule:evenodd;clip-rule:evenodd;fill:#151313;}
	.st2{fill:none;}
	.st3{display:none;}
	.st4{display:inline;fill:#0A0A09;}
</style>
<g id="Mountains">
	<g>
		<path class="st0" d="M568.98,880.58c-2.87-0.07-4.5-0.12-4.5-0.12S566.14,880.58,568.98,880.58z"/>
		<path class="st0" d="M884.08,841.25c-4.8-5.2-8.15-8.88-11.28-11.59c-7.43-6.42-13.65-7.36-35.28-10.2
			c-5.94-0.78-13.05-1.7-21.66-2.92c-53.18-7.52-35.45-10.2-16.11-16.11c2.27-0.69,3.89-1.64,4.92-2.8
			c7.83-8.69-16.45-29.24-34.47-43.93c-20.41-16.65-39.74-26.86-49.95-54.26c-10.21-27.39-38.68-51.56-58.55-82.72
			c-19.87-31.15-24.71-22.56-31.69-20.41c-6.98,2.15-38.68,16.11-45.12,8.6c-6.45-7.52-13.43,0.53-22.03,10.74
			c-8.59,10.2-20.94-9.67-24.7-27.39c-3.76-17.73-29.01-17.2-41.9-22.57s-15.58-10.74-18.27-26.32
			c-2.68-15.58-36.52-35.45-58.01-71.97c-21.48-36.53-38.13-22.03-50.49-11.28c-12.35,10.74-11.82,14.5-27.39,26.85
			c-15.58,12.36-13.43,22.02-18.8,42.44c-5.38,20.41-33.31,56.94-49.96,89.16c-16.65,32.23-40.28,49.42-61.77,46.2
			c-21.49-3.22-61.23,9.67-75.74,16.11c-14.5,6.45-61.23-8.59-76.81-20.41c-15.58-11.82-30.62,19.34-55.33,40.29
			c-1.23,1.04-2.46,2.07-3.69,3.08v15.87c0.27-0.22,0.55-0.45,0.83-0.68c23.27-18.98,42.26-26.14,55.86-32.59
			c13.61-6.45-6.09,10.74-25.78,27.93c-19.7,17.19,6.09-1.44,33.3-15.04c27.22-13.6,19.7-2.87,42.26-1.79
			c22.56,1.07,32.94-3.22,54.79-11.46c21.84-8.24,7.88,9.31,2.15,26.5c-5.34,16.02-15.35,20.83-32.04,32.13
			c-1.22,0.83-2.48,1.7-3.77,2.6c-18.98,13.25-8.6,16.12-10.75,32.23c-0.81,6.11-5.49,10.63-12.53,14.52
			c-11.52,6.38-29.35,11.09-46.91,18.43c-28.29,11.82-20.41-1.43-10.03-5.37s15.04-7.52,27.22-44.77
			c12.17-37.24,20.41-37.23,19.69-53.71c-0.71-16.48-10.03-0.72-37.96,15.04c-27.93,15.75-30.44,22.2-53,36.89
			c-1.1,0.71-2.21,1.44-3.33,2.16v88.09c4.43,1.71,9.95,2.65,19.45,3.21c19.89,1.17,36.43,10.22,54.9,19.74
			c4.15,2.14,8.39,4.3,12.78,6.4c23.99,11.46,20.41-10.74,24.35-34.38c1.48-8.89,5.46-12.87,10.93-14.14h0.01
			c3.92-0.9,8.63-0.42,13.75,0.63c2.95,0.61,6.04,1.4,9.19,2.23c3.87,1.03,7.85,2.1,11.81,2.94c0.17,0.04,0.34,0.07,0.51,0.11
			c4.83,1,10.53,3.47,16.68,6.85c3.6,1.99,7.36,4.28,11.18,6.79h0.01c17.69,11.57,36.78,27.45,48.76,36.49
			c18.98,14.33,10.38-4.3,10.74-14.68c0.29-8.29,5.37-12.02,19.6-13.73c3.6-0.44,7.79-0.74,12.63-0.96
			c24-1.07,12.89-27.93,9.31-43.33c-2.94-12.63-6.6-13.45-33.54-14.33c-0.01,0-0.01,0-0.02,0c-5.89-0.18-12.89-0.38-21.23-0.7
			c-7.2-0.28-13.49-0.69-18.92-1.21c-29.69-2.81-33.99-8.55-23.69-10.97c4.32-1.01,11.39-0.86,19.67-0.09
			c15.06,1.4,34.14,4.81,48.01,6.89c1.26,0.19,2.51,0.23,3.74,0.12c19.74-1.54,35.73-37.76,54.27-44.16
			c19.69-6.81,52.28-9.32,52.64-1.08c0.36,8.24-17.19,32.23-10.02,31.51c7.16-0.71,11.45-11.1,34.37-23.63
			c22.92-12.53,25.43-20.77,31.16-38.68c5.73-17.9,40.1-46.9,51.56-55.5c11.46-8.59-21.48-36.17-22.92-39.03
			c-1.43-2.86,22.92-1.79,55.15,6.8c32.23,8.6,35.81,3.58,42.97,7.52c7.17,3.94,21.49-10.02,25.79-16.11
			c4.3-6.09,13.61,1.43,23.99,5.01c10.39,3.59,10.74-3.58,21.13-11.81c10.38-8.24,19.34,0.71,26.14,9.66
			c6.8,8.96,0.72,13.97-7.52,22.21c-8.24,8.23-16.47,9.66-17.19,18.26c-0.71,8.59-11.82,20.41-25.78,22.56
			c-13.97,2.14-15.04,6.8-19.34,21.48c-4.3,14.69-16.11,10.75-13.96,18.27c2.14,7.52,12.17,5.01,28.28-0.72
			c16.12-5.73,2.87-17.19,8.96-24.35c6.08-7.16,8.59,2.86,22.92-3.58c14.32-6.45,12.89-29.36,23.27-44.76
			c10.38-15.4-0.36,10.74-3.58,29.36c-1.62,9.34-0.44,13.46,1.32,17.04c1.74,3.57,4.06,6.62,4.77,13.76
			c0.87,8.7-2.23,15.42-4.79,22.09c-1.66,4.3-3.09,8.58-3.09,13.36c0,5.25,4.26,9.5,9.36,13.44c6.74,5.2,14.95,9.86,16.78,15.57
			c2.78,8.65-7.5-1.1-19.35-6.7c-1.88-0.89-3.8-1.67-5.72-2.26c-13.96-4.3-15.75,2.15-27.21,14.68c-2.65,2.9-5,4.58-6.95,5.28
			c-6.47,2.35-8.58-5.95-3.08-15.3c7.17-12.17,26.14-49.42,22.56-55.15c-0.61-0.98-1.52-1.27-2.68-1h-0.01
			c-5.6,1.3-16.62,15.75-23.45,28.22c-3.64,6.64-7.79,17.15-11.49,27.7c-4.68,13.34-8.62,26.75-9.82,32.45
			c-2.15,10.21-35.45,20.42-42.43,27.93c-6.98,7.53-37.06,28.47-62.85,26.86c-3.65-0.23-7.24-0.06-10.75,0.43
			C442.78,861.3,424.53,876,413,884.76c-3.64,2.77-4.12,4.11-2.39,4.4c0.4,0.07,0.92,0.08,1.54,0.03
			c5.36-0.35,18.53-4.52,32.24-9.67h0.01c3.32-1.25,6.68-2.56,9.96-3.89c25.25-10.21,31.15-1.08,56.4-5.37
			c4.34-0.74,7.77-1.75,10.58-2.93h0.01c13.5-5.69,12.34-15.35,27.01-18.02c17.73-3.22,40.83-41.36,67.68-60.16
			c19.42-13.59,22.55-11.46,24.21-6.19v0.01c0.65,2.01,1.07,4.48,2.11,6.71c1.97,4.23,6.01,11.41,6.31,22.16
			c0.09,3.32-0.17,6.99-0.96,11.03c-1.54,7.78-5.06,16.9-11.79,27.51c-7.02,11.06-17.08,18.1-27.44,22.57
			c-15.58,6.72-31.85,7.63-39.5,7.63c6.13,0.16,18.03,0.43,32.34,0.58c23.44,0.26,53.35,0.19,74.88-1.23
			c40.83-2.69,63.39,3.76,90.24,16.11c2.4,1.1,4.59,1.9,6.62,2.42c18.47,4.75,22.92-13.51,45.51-29.32c0,0,0.01,0,0.01-0.01
			c2.59-1.82,5.43-3.61,8.56-5.32c13.17-7.21,23.79-9.99,33.91-10.2h0.01c3.31-0.07,6.55,0.13,9.81,0.54
			c12.02,1.5,24.22,5.82,40.07,9.66c33.3,8.06,37.06-3.22,37.06-3.22S903.42,862.2,884.08,841.25z M397.24,468.29
			c-16.83,2.5-36.16,0.71-50.13,28.29c-13.96,27.57-13.25,62.67-28.65,76.63c-15.4,13.97-12.89,21.13-31.15,45.12
			c-18.27,23.99-42.62,46.2-52.28,59.09c-9.67,12.89-16.83,30.8-6.09,43.69c0.42,0.51,0.85,0.98,1.27,1.42
			c0.86,0.89,1.72,1.63,2.56,2.23h0.01c9.17,6.57,16.93-3.16,16.93-12.61c0-10.74,2.86-26.13,10.02-32.94
			c7.17-6.8,17.55-27.57,31.88-35.81c14.32-8.24,22.55-18.26,22.91-26.86c0.36-8.59-2.5-24.35,15.4-31.87
			c17.91-7.52,32.59-17.54,31.15-32.94c-1.43-15.4-9.3-33.66,1.08-27.94c0,0,26.14,11.46,33.3,4.66c7.17-6.8,11.47-27.57,12.9-37.96
			C409.78,480.11,414.07,465.78,397.24,468.29z"/>
		<path class="st0" d="M540.3,701.05c5.91,21.49-3.22,32.23-9.13,53.72c-5.91,21.49-3.76,43.51-15.04,31.69
			c-9.25-9.69-18.14-16.5-29.04-8.55c-2.39,1.74-4.87,4.2-7.48,7.48c-4.34,5.46-8.33,11.34-11.86,16.37
			c-8,11.38-13.61,18.37-15.35,6.06c-0.07-0.47-0.13-0.96-0.19-1.48c-1.83-17.37,18.5-34.73,3.45-31.59h-0.02
			c-2.64,0.56-6.37,1.74-11.49,3.66c-34.37,12.89-97.73,55.06-73.58,32.76c0,0,30.61-30.62,59.08-49.42
			c28.47-18.8,69.83-39.21,75.74-55.32c5.91-16.12,27.93-68.76,34.91-55.33C547.29,664.53,534.4,679.57,540.3,701.05z"/>
		<path class="st0" d="M416.94,855.78c-6.8,0.02-26.8,5.57-43.1,11.53c-5.17,1.89-9.96,3.82-13.84,5.63
			c-8.54,3.99-19.5,4.75-28.34,2.02c-7.83-2.4-14-7.55-15.35-15.63c-2.86-17.19,49.78-24.34,52.64-24.34
			c11.82,0,11.11-7.88,21.13-14.33c6.48-4.16,9.07-0.71,11.64,5.15c1.23,2.81,2.45,6.16,4.09,9.5c0.23,0.49,0.48,0.97,0.74,1.46
			C412.28,847.52,425.89,855.75,416.94,855.78z"/>
		<path class="st0" d="M501.45,830.8c-11.1,8.84-72.33,25.31-56.94,12.42c0,0,0.14-0.5,0.43-1.37c0.39-1.22,1.06-3.15,1.99-5.39
			c3.38-8.2,10.16-20.59,19.43-17.63c1.51,0.48,3.25,0.89,5.14,1.25c9.7,1.88,23.28,2.53,29.23,4.81c0.05,0.01,0.09,0.02,0.14,0.05
			C504.1,826.22,504.96,828.01,501.45,830.8z"/>
	</g>
	<g>
		<path class="st0" d="M1222.49,1053.68c-2,1-9.21-2.46-19.03-6.46h-0.01c-10.03-4.07-22.79-8.7-35.55-9.72
			c-2.83-0.23-5.48-0.42-7.95-0.61h-0.01c-4.2-0.33-7.89-0.64-11.18-1.09c-0.22-0.03-0.44-0.06-0.65-0.09
			c-0.84-0.12-1.65-0.25-2.44-0.39c-10.15-1.82-16.11-5.59-21.25-16.52c-8.09-17.19-12.64-19.21-49.04-39.94
			s-69.26-37.92-79.37-33.87c-10.11,4.04,13.65,23.75,13.65,34.88c0,11.12-30.34-20.73-43.48-34.38s-26.79-42.47-35.89-62.18
			c-9.1-19.72-19.22-26.8-20.73-5.06c-1.52,21.74,15.16,61.17-11.12,82.41c-14.96,12.07-32.04,28.08-42.6,35.35
			c-7.99,5.52-12.24,6.02-8.97-4.01c1.06-3.25,2.54-6.85,4.31-10.7v-0.01c10.88-23.74,32.46-56.97,31.58-75.23
			c-1.01-21.24,7.59-45.5-9.6-29.32s-65.22,55.1-61.17,46c4.04-9.1,56.62-54.59,58.64-64.71c0.3-1.48,0.39-2.8,0.24-3.88
			c-0.47-3.51-3.4-4.55-9.81-0.54h-0.01c-5.16,3.21-12.57,9.7-22.77,20.79c-26.8,29.13-83.93,81.2-120.33,102.94
			c-36.4,21.74-22.75,13.15,1.52-13.65c21.99-24.29,85.51-78.88,99.1-94.55c0,0,0.01,0,0.01-0.01c1.4-1.61,2.27-2.81,2.51-3.52
			c2.52-7.58-6.07-12.13-31.85,12.13c-7.66,7.21-12.37,14.19-16.18,20.72c-9.03,15.48-12.98,28.44-38.93,35.91
			c-36.9,10.62-52.07,14.66-66.73,37.92c-14.66,23.25-5.56,54.15-32.86,43.5c-27.3-10.65-22.75-27.33-59.15-11.65
			c-32.63,14.05-57.15,28.91-71.34,29.28c-1.64,0.05-3.14-0.1-4.5-0.47c-13.14-3.53-52.07-3.53-32.35-14.15
			c3.55-1.91,9.41-4.56,16.82-7.78c33.75-14.67,99.63-41.21,125.75-64.01c31.85-27.81,40.95-37.42,50.05-41.46
			c9.09-4.04,23.76-17.18-7.59-7.08c-31.34,10.12-90.49,47.02-103.13,48.54c-12.64,1.51,33.87-48.54,51.57-65.22
			c0.22-0.21,0.44-0.41,0.65-0.63c2.91-2.81,5.22-5.53,7.16-8.21c9.36-12.92,10.35-24.95,30.61-42.72c2.93-2.57,5.82-5.03,8.62-7.36
			c20.92-17.43,36.9-28.15,25.75-29.04c-7.63-0.62-14.89,8.92-24.79,18.01c-6.5,5.96-14.13,11.74-23.74,14.34
			c-24.26,6.57-14.15,3.03,1.01-20.73c5.32-8.33,10.26-15.78,14.31-22.48v-0.01c3.2-5.28,5.83-10.08,7.65-14.47
			c1.32-3.17,2.21-6.12,2.57-8.87c0.34-2.39,0.27-4.64-0.26-6.74c-2.78-11.13-5.56-18.85-6.01-20.06c-0.04-0.11-0.06-0.17-0.06-0.17
			s-13.95,27.03-36.12,53.54c-7.07,8.46-14.97,16.86-23.53,24.32c-18.72,16.31-42.8,36.72-63.14,56.82h-0.01
			c-18.11,17.91-33.25,35.57-38.97,49.85c-8.72,21.78-20.04,42-26.1,58.41c-2.38,6.44-3.95,12.3-4.24,17.43
			c-1.01,18.2-18.2,24.26-23.76,13.65c-0.26-0.49-0.48-1.04-0.67-1.63v-0.01c-3.83-12.07,6.6-43.01,3.7-56.51
			c-3.03-14.15-15.16-5.05-43.47,13.65c-28.31,18.71-17.19,18.2,19.71-32.35c16.32-22.34,27.39-38.27,36.85-50.3h0.01
			c6.93-8.82,13-15.55,19.62-21.19c4.8-4.09,9.9-7.6,15.82-10.92c25.28-14.15,31.85-18.7,21.74-22.24
			c-0.24-0.08-0.48-0.16-0.71-0.23c-0.05-0.03-0.09-0.04-0.14-0.05c-9.68-3.14-17.23-0.83-47.69,13.42
			c-3.44,1.61-6.11,2.77-8.1,3.54c-8.05,3.12-5.16-0.07,1.99-5.39c6.37-4.75,16.14-11.19,24.57-16.38c1.12-0.68,2.22-1.35,3.28-1.99
			c20.23-12.13,22.25-25.78,1.52-19.21c-2.57,0.81-5.44,1.77-8.55,2.88c-4.65,1.66-9.83,3.66-15.35,6.06
			c-14.33,6.23-30.97,15.11-46.59,27.49c-6.78,5.37-13.37,11.41-19.5,18.17c-4.08,4.51-8.25,9.14-12.47,13.83
			c-26.04,28.99-53.68,60.13-71.96,76.66c-21.23,19.22-44.99,39.44-85.43,54.6c-9.02,3.38-16.46,6.16-22.73,8.6
			c-21.85,8.48-29.58,12.77-40.97,23.76c-2.66,2.57-5.97,4.95-9.6,7.14h-0.01c-16.09,9.67-38.55,15.39-39.41,15.6
			c0.26-0.17,3.46-2.26,8.71-6.12c3.37-2.49,7.6-5.72,12.45-9.65c4.58-3.72,9.72-8.07,15.22-13.03
			c12.8-11.56,17.5-16.56,27.81-22.03c6.38-3.38,14.9-6.95,28.81-12.35c36.4-14.16,63.19-28.82,81.39-57.13
			c1.95-3.03,4.2-6.19,6.69-9.44c12.14-15.81,30.02-33.68,46.85-48.96c11.99-10.9,23.44-20.47,31.9-27.04
			c22.75-17.69,37.41-21.23,37.41-21.23s0.26-0.31,0.75-0.88c4.9-5.74,32.97-38.09,53.92-51.06h0.02c4.43-2.75,8.54-4.62,12.04-5.19
			c6.55-1.07,13.06,2.6,19.39,8.35c14.65,13.33,28.31,37.87,39.26,40.69c15.47,3.99,45.72-15.04,63.52-47.94
			c0.23-0.42,0.45-0.85,0.68-1.28c9.07-17.27,21.67-39.1,34.26-54.64h0.01c6.64-8.21,13.29-14.66,19.4-17.77
			c4.92-2.5,9.5-2.84,13.47-0.21c18.3,12.13,91.1,63.7,134.58,92.52c4.29,2.84,8.42,5.64,12.4,8.35
			c12.37,8.42,23.26,16.04,32.85,21.83c14.61,8.83,26.18,13.43,35.28,10.2c2.49-0.89,4.8-2.36,6.93-4.49
			c16.68-16.68,15.67-36.4,42.97-7.08s110.72,107.18,129.42,120.83c0.49,0.36,1.04,0.75,1.63,1.17
			c15.76,11.19,64.66,42.55,99.87,65.1h0.01c4.67,2.99,9.09,5.82,13.16,8.43c0.78,0.49,1.54,0.98,2.28,1.46
			c0.21,0.13,0.41,0.26,0.61,0.39c4.41,2.83,8.35,5.35,11.64,7.47c1.37,0.88,2.62,1.7,3.76,2.43c7.43,4.81,14.02,9.02,19.54,12.65
			c1.78,1.16,3.46,2.27,5.01,3.32c3.15,2.11,5.8,3.97,7.9,5.57C1222.33,1050.54,1224.23,1052.81,1222.49,1053.68z"/>
		<path class="st0" d="M412.15,889.19c-0.03,0.41-0.13,0.97-0.31,1.7c-2.27,9.48-37.54,50.81-72.42,71.28
			c-34.88,20.48-81.03,29.77-67.87,25.03c0,0,17.82-3.04,42.09-24.27c24.26-21.23,31.47-24.27,61.42-43.6
			c21.06-13.6,31.81-26.81,35.55-30.17C411.78,888.1,412.26,888.02,412.15,889.19z"/>
		<path class="st0" d="M570.33,857.27c0,0-16.68,23.76-30.84,33.11s-34.63,17.19-29.07,23.25c5.56,6.07,15.67,2.53,35.39-16.43
			C565.53,878.25,570.33,857.27,570.33,857.27z"/>
		<path class="st0" d="M806.92,955.74c-0.37,0.55-12.37,18.14-28.05,38.66c-15.92,20.86-33.36,51.57-50.81,52.33
			c-17.44,0.75-23.5-8.72-4.55-20.1C742.32,1015.35,805.93,956.66,806.92,955.74z"/>
		<path class="st0" d="M1003.34,1032.7c-1.93,2.7-21.15-9.33-40.91-23.9v-0.01c-2.4-1.76-4.8-3.57-7.19-5.39
			c-16.57-12.65-32.07-26.05-36.46-32.89c-10.23-15.92,11.38-22.75,11.38-22.75s11.64,12.04,25.64,27.07
			c0.49,0.52,0.97,1.04,1.46,1.56v0.01C979.02,999.8,1005.61,1029.53,1003.34,1032.7z"/>
		<g>
			<path class="st0" d="M1207.67,704.36c0.37-2.26,0.59-4.32,0.66-6.33C1208.5,693.73,1206.53,694.47,1207.67,704.36z"/>
			<path class="st0" d="M1283.73,990.9L1283.73,990.9c-0.75-3.42-3.06-6.68-5.88-10.02c-0.15-0.18-0.29-0.35-0.45-0.51
				c-5.32-6.08-9.11-6.5-7.8-13.39c0.64-3.36-0.55-5.97-2.67-9.04c-2.34-3.4-5.84-7.34-9.3-13.46
				c-6.57-11.63,4.81-11.63,10.62-22.75c3.41-6.51,0.05-11.54-6.56-15.72c-1.38-0.87-2.91-1.7-4.54-2.51
				c-0.83-0.4-1.68-0.8-2.56-1.18c-3.27-1.46-6.88-2.82-10.61-4.1c-16.17-5.56-2.53-17.18,6.32-21.99c8.85-4.8,5.31-9.35-0.51-25.28
				c-5.81-15.92-3.28-15.16,1.52-26.26c4.8-11.11-9.6-16.96-19.97-13.93c-10.36,3.04-7.83-17.19-2.78-31.59
				c5.06-14.41-6.57-18.96-15.67-50.81c-3.15-11.02-4.61-18.77-5.22-24c-0.84,5.13-2.57,11.39-5.9,21.22
				c-4.81,14.16-3.29,21.23-2.04,35.39c1.25,14.15-10.6,23.76-13.38,29.57c-2.78,5.81,5.81,5.31,11.63,10.11
				c5.81,4.81-3.8,5.82-14.67,9.61c-10.87,3.79-3.28,7.33,0.51,16.43c3.79,9.1-5.81,3.54-23.51,7.83
				c-17.69,4.3,16.18,17.19,19.47,28.32c3.28,11.12-13.91-5.82-27.05,3.28c-13.15,9.1,19.71,19.21,30.84,29.83
				c11.12,10.62-8.34,5.81-20.73,5.31c-12.39-0.51,0.25,4.55,9.35,12.13c9.1,7.58-7.33,3.79-18.95,2.02
				c-11.63-1.77,6.82,7.34,12.63,17.95c5.82,10.62-6.82,19.97-21.73,20.48c-14.92,0.5-4.55-8.1,2.52-18.71
				c7.08-10.62,1.77-6.83-2.27-14.66c-4.05-7.84,5.81-10.11,4.8-19.21c-1.01-9.1-19.46-6.32-22.5-12.89
				c-3.03-6.58,11.63-8.09,14.66-13.97c3.04-5.89-9.1-1.46-12.63-4.99c-3.54-3.54,0.75-7.33,12.38-18.96
				c11.63-11.63,1.27-15.42-8.34-16.94c-9.61-1.51-1.01-6.82-1.52-13.14c-0.5-6.32-7.58-11.37-13.39-14.16
				c-5.82-2.78-1.27-9.85,2.78-21.48c4.04-11.63-8.85-9.1-8.85-16.94c0-7.83-1.01-11.37-8.09-24.77
				c-7.08-13.4-2.27-32.36-3.03-38.93c-0.76-6.57-1.52,10.37-3.29,19.21c-1.77,8.85-3.29,16.44-4.3,26.8s-11.88,23.25-21.23,35.89
				c-9.35,12.64,5.31,7.59,12.39,12.14c7.08,4.55,1.26,6.06-3.79,8.08c-5.06,2.02-11.38,7.59-10.72,17.19
				c0.65,9.61-8.5,8.85-22.65,7.59c-14.16-1.27-3.29,6.82,5.31,13.65c8.59,6.82,15.92,10.61,17.19,15.92
				c1.26,5.31-5.57,8.34-15.17,5.56c-9.61-2.78-8.34-5.81-16.94-2.78c-8.59,3.03-5.05,8.85,4.55,11.06
				c9.61,2.2,23.76,2.85,25.53,9.67c1.77,6.83-25.91,6.44-29.7,7.2c-3.79,0.76,16.68,14.03,20.72,20.09
				c4.03,6.07-4.79-0.37-15.41-2.65c-10.62-2.27,10.24,6.45,14.41,14.41c4.17,7.96-5.31-1.14-17.44,0
				c-12.14,1.14,1.89,3.41,8.72,9.1c2.45,2.04,3.97,4.96,4.91,7.87c1.69,5.19,1.53,10.33,1.53,10.33l21.62,18.2
				c0,0,57.88,32.74,69.76,47.17c2.65,3.23,6.11,6.04,10.09,8.55c0.42,0.27,0.84,0.53,1.27,0.79s0.87,0.51,1.32,0.77
				c3.62,2.07,7.59,3.92,11.71,5.62c11.38,4.71,23.89,8.26,33.5,12.05c0.63,0.25,1.23,0.49,1.8,0.72
				c7.93,3.19,10.56,4.59,11.18,2.62c0.46-1.47-0.19-4.8-0.58-10.65c-0.14-1.92-0.24-4.11-0.27-6.59
				c-0.2-17.2,0.95-25.06,2.76-30.39c0.4-1.18,0.83-2.23,1.29-3.23c0.91-1.99,2.95-2.85,5.85-2.58c5.19,0.48,13.13,4.56,22.21,12.18
				c3.13,2.63,6.12,4.26,8.95,5.12h0.01c2.3,0.69,4.49,0.88,6.56,0.69h0.01c6.93-0.65,12.53-5.56,16.32-10.1
				C1283.75,997.62,1284.47,994.2,1283.73,990.9z M1191.78,815.94c3.79-3.79,15.55,3.04,15.55,3.04s3.16,3.53,3.03,5.81
				c-0.13,2.27-4.17,2.91-15.8,2.78C1182.94,827.44,1187.99,819.74,1191.78,815.94z M1072.72,822.01c-0.37-3.03,4.55-2.27,8.98-1.52
				c4.42,0.76,8.09-4.67,8.09-4.67c3.19-3.26,5.81,1.51,7.08,5.43c1.26,3.92-1.14,3.42-14.67,8.09
				C1068.68,834.01,1073.1,825.04,1072.72,822.01z M1072.85,845.01c-0.25-2.78,5.53-3.39,6.32-3.79c3.29-1.64,7.71,8.09,0,13.02
				C1071.46,859.17,1073.1,847.79,1072.85,845.01z M1206.76,1027.39c-0.32,5.76-1.02,9.06-2.14,10.63
				c-1.52,2.15-3.86,1.07-7.15-1.34c-3.58-2.62-11.37-6.3-19.86-10.7c-3.91-2.03-7.98-4.21-11.85-6.52
				c-0.28-0.16-0.57-0.33-0.85-0.5c-0.66-0.4-1.31-0.8-1.95-1.2c-0.13-0.08-0.25-0.15-0.37-0.23
				c-12.89-8.15-21.62-15.36-11.95-12.89c1.06,0.27,2.05,0.45,2.98,0.55h0.01c7.55,0.85,10.71-3.52,8.01-9.08
				c-3.03-6.26,15.92-10.05,28.06-9.86c0.79,0.01,1.54,0.05,2.24,0.11c1.49,0.13,2.79,0.37,3.94,0.71c0.44,0.12,0.86,0.26,1.26,0.41
				c5.66,2.18,7.22,6.91,9.62,11.85c0,0,0.17,3.13,0.26,7.87C1207.14,1012.61,1207.17,1020.11,1206.76,1027.39z"/>
		</g>
		<g>
			<path class="st0" d="M122.32,705.09c-0.37-2.26-0.59-4.32-0.67-6.33C121.49,694.46,123.47,695.2,122.32,705.09z"/>
			<path class="st0" d="M287.99,875.12c9.6-2.2,13.14-8.02,4.55-11.05c-8.6-3.03-7.34,0-16.94,2.78
				c-9.61,2.78-16.43-0.25-15.17-5.56c0.51-2.15,2.03-4.06,4.22-6.01c3.2-2.87,7.86-5.86,12.97-9.91
				c8.6-6.83,19.46-14.92,5.31-13.65c-14.16,1.26-23.3,2.02-22.65-7.59c0.66-9.6-5.66-15.16-10.72-17.18
				c-5.05-2.03-10.87-3.54-3.79-8.09c2.04-1.31,4.71-1.83,7.26-2.2c0.01,0,0.01,0,0.02,0c5.16-0.75,9.8-0.91,7.56-5.96
				c-0.48-1.08-1.28-2.38-2.45-3.97c-9.36-12.64-20.23-25.54-21.24-35.9c-0.98-10.08-2.44-17.53-4.14-26.07h-0.01
				c-0.04-0.24-0.09-0.48-0.14-0.72c-1.77-8.85-2.53-25.78-3.29-19.21c-0.39,3.41,0.71,10.14,0.87,17.7
				c0.16,7.02-0.49,14.77-3.9,21.22c-7.08,13.4-8.09,16.94-8.09,24.78c0,7.41-11.53,5.54-9.36,15.16c0.12,0.55,0.29,1.14,0.51,1.77
				c1.22,3.51,2.49,6.6,3.51,9.29c2.34,6.22,3.33,10.25-0.73,12.2c-5.81,2.78-12.89,7.83-13.39,14.15
				c-0.51,6.32,8.09,11.63-1.52,13.14c-8.42,1.33-17.41,4.4-11.7,12.96h0.01c0.8,1.21,1.91,2.54,3.35,3.98
				c11.62,11.63,15.92,15.42,12.38,18.96c-3.54,3.54-15.67-0.9-12.64,4.98c3.04,5.89,17.7,7.4,14.66,13.97
				c-3.03,6.58-21.48,3.8-22.49,12.9s8.85,11.38,4.8,19.21c-4.04,7.84-9.35,4.05-2.27,14.66c7.07,10.62,17.44,19.22,2.52,18.71
				c-14.91-0.51-27.55-9.86-21.74-20.48c5.82-10.62,24.27-19.72,12.64-17.94c-11.62,1.77-28.06,5.56-18.96-2.02
				c9.1-7.59,21.74-12.64,9.36-12.14c-12.39,0.51-31.85,5.31-20.73-5.31c11.12-10.61,43.98-20.73,30.84-29.83
				c-13.15-9.1-30.34,7.84-27.05-3.28c2.41-8.13,21.1-17.19,24.14-23.16c1.12-2.21,0.11-3.99-4.67-5.15
				c-4.81-1.17-9.01-1.61-12.52-1.81c-7.55-0.44-11.84,0.21-11.81-2.94c0.01-0.78,0.28-1.78,0.82-3.09
				c3.79-9.1,11.37-12.64,0.5-16.43s-20.47-4.8-14.66-9.6c5.82-4.81,14.41-4.31,11.63-10.12c-2.78-5.81-14.63-15.42-13.38-29.57
				c0.75-8.54,1.6-14.5,1.1-20.99c-0.32-4.27-1.23-8.78-3.14-14.4c-3.33-9.83-5.06-16.09-5.91-21.22c-0.6,5.23-2.06,12.98-5.21,24
				c-9.1,31.85-20.73,36.4-15.67,50.81c1.12,3.21,2.12,6.7,2.88,10.16c2.66,12.1,2.39,23.8-5.66,21.44
				c-10.37-3.04-24.78,2.82-19.97,13.92c4.8,11.1,7.33,10.34,1.51,26.27c-3.25,8.91-5.79,14.26-5.85,18.08
				c-0.04,3.01,1.45,5.08,5.35,7.19c8.85,4.81,22.49,16.43,6.32,21.99c-16.18,5.57-30.08,12.39-24.27,23.51
				c5.82,11.13,17.19,11.12,10.62,22.75s-13.32,15.42-11.97,22.5c1.35,7.08-2.69,7.33-8.25,13.9c-5.57,6.58-9.11,12.89-2.79,20.48
				c6.32,7.58,17.7,16.18,31.85,4.3c14.16-11.89,25.53-15.18,28.06-9.61c2.53,5.56,4.3,12.64,4.05,33.62
				c-0.12,9.9-1.43,15.13-0.88,17.15c0.61,2.25,3.53,0.49,13.01-3.25c5.25-2.07,11.36-4.07,17.69-6.23h0.01
				c15.29-5.21,31.78-11.33,40.19-21.55c2.15-2.62,5.82-5.84,10.38-9.35c20.59-15.88,59.38-37.82,59.38-37.82l21.61-18.2
				c0,0-0.37-12.51,6.45-18.2c6.83-5.68,20.85-7.96,8.72-9.1c-1.76-0.16-3.46-0.11-5.07,0.07c-9.52,1.08-15.94,6.74-12.37-0.07
				c4.17-7.96,25.02-16.68,14.41-14.4c-10.62,2.27-19.44,8.72-15.41,2.65c4.03-6.07,24.51-19.34,20.72-20.1
				c-3.8-0.75-31.48-0.38-29.71-7.2C264.22,877.97,278.38,877.33,287.99,875.12z M250.83,854.97c-7.71-4.93-3.29-14.66,0-13.02
				c0.79,0.4,6.57,1.01,6.32,3.79C256.89,848.53,258.54,859.9,250.83,854.97z M248.3,821.23c4.42-0.76,9.35-1.52,8.97,1.51
				c-0.38,3.04,4.05,12.01-9.48,7.33c-13.52-4.67-15.92-4.17-14.66-8.09c1.27-3.91,3.89-8.69,7.08-5.43
				C240.21,816.55,243.87,821.98,248.3,821.23z M138.22,816.68c3.71,3.71,8.62,11.16-2.05,11.6c-0.24,0.01-0.48,0.02-0.74,0.02
				c-6.48,0.07-10.61-0.09-13.01-0.65h-0.01c-1.9-0.44-2.72-1.13-2.77-2.13c-0.13-2.27,3.03-5.81,3.03-5.81
				S134.42,812.88,138.22,816.68z M132.53,1037.41c-3.66,2.68-6.14,3.72-7.64,0.49c-0.84-1.8-1.38-4.91-1.65-9.78
				c-0.76-13.65,0-28.05,0-28.05c3.22-6.64,4.93-12.9,17.06-13.09s31.09,3.61,28.06,9.86c-1.11,2.3-1.23,4.39-0.44,6
				c1.33,2.77,5.32,4.09,11.43,2.53c9.67-2.46,0.95,4.74-11.94,12.9C154.52,1026.42,138.22,1033.24,132.53,1037.41z"/>
		</g>
	</g>
	<g>
		<g>
			<g>
				<g>
					<g>
						<path class="st0" d="M1700.11,997.17c-2.15,4.75-5.08,7.71-7.93,10.95c-11.74,12.31-24.57,22.89-37.44,33.46
							c-4.99,4.07-10.01,8.08-15.02,12.1c-4.76-0.07-9.52-0.12-14.29-0.16l24.2-18.37c12.95-10.21,26.26-20.23,37.87-31.53
							c2.77-2.78,5.72-5.93,7.08-8.74c0.18-0.36,0.25-0.67,0.29-0.84c-0.03-0.01-0.03-0.02-0.06-0.04l-1.09-0.95
							c-1.49-1.25-3.1-2.39-4.77-3.48c-3.35-2.17-6.91-4.13-10.56-6.07h-0.01c-3.64-1.93-7.36-3.84-11.01-5.93
							c-7.32-4.13-14.49-8.92-20.59-14.97c-3.06-2.94-5.84-6.44-8.26-9.7c-2.43-3.22-5.15-6.24-8.04-9.09
							c-5.78-5.73-12.32-10.71-19-15.63c-6.57-5.01-13.63-9.8-18.9-16.9c-2.71-3.84-3.9-7.56-5.95-11.21
							c-1.88-3.67-3.84-7.31-5.83-10.93c-3.97-7.21-8.07-14.37-12.25-21.45c-12.69-15.59-25.63-30.96-38.49-46.41l-38.25-45.85
							c-1.3-0.31-2.08-0.77-3.07-1.25c-1.13-0.63-2.15-1.33-3.14-2.07c-1.95-1.48-3.7-3.14-5.33-4.86
							c-3.47-3.46-5.85-7.8-8.14-11.72l-13.2-24.17c-0.52-0.88-0.63-0.94-1.28-1.35c-0.59-0.32-1.5-0.58-2.52-0.79
							c-2.03-0.47-4.65-0.56-7.51-2.29c-0.61-0.33-1.56-1.23-2.04-1.82l-0.52-0.69l-0.64-1.04c-0.61-1.09-1.18-2.2-1.68-3.31
							c-1-2.23-1.83-4.47-2.59-6.69c-1.5-4.46-2.74-8.87-4.21-13.06c-1.41-3.96-3.1-7.83-5.44-10.47c-0.32,0.16-0.64,0.33-0.96,0.51
							v0.01c-0.57,0.3-1.15,0.62-1.72,0.95c-3.14,1.83-6.23,3.84-9.24,5.95c-5.96,4.26-11.8,8.92-16.31,14.18
							c-1.11,1.32-2.09,2.62-2.85,4.01c-1,1.83-2.27,3.59-3.45,5.14c-2.43,3.15-4.95,6.03-7.47,8.9l-15.07,16.81
							c-4.88,5.6-9.68,11.31-13.43,17.28c-1.68,2.57-3.35,6.5-5.44,9.84c-2.04,3.4-4.28,6.65-6.65,9.76
							c-2.37,3.11-4.87,6.08-7.35,8.95l-3.53,4.21c-0.55,0.67-1.06,1.35-1.45,1.94c-0.35,0.51-0.51,0.88-1.19,2.18
							c-2.41,4.13-5.43,6.97-8.35,9.66c-2.95,2.65-5.93,5.05-8.93,7.43c-3.12,2.45-5.7,4.35-7.97,6.87
							c-2.28,2.48-4.27,5.32-6.09,8.37c-3.63,6.13-6.66,12.96-9.65,19.8c-3.06,6.87-5.58,13.82-9.22,20.96
							c-3.6,6.97-7.85,13.49-12.41,19.7c-3.23,4.38-6.62,8.62-10.08,12.75c-1.42,1.71-2.86,3.4-4.31,5.07l-7.26,8.56
							c-2.28,2.8-4.69,5.89-6.05,8.48c-1.37,3.27-3.38,7.3-5.62,10.44c-2.23,3.27-4.65,6.25-7,9.19
							c-4.82,5.89-8.92,11.65-13.22,18.16l-0.11,0.17l-0.16,0.16l-20.82,21.24l-16.58,16.91l-10.88,11.08l-3.92,3.99l-3.93,4
							c-0.83,0.82-1.66,1.63-2.49,2.44c-3.48,3.36-7.01,6.65-10.58,9.9c-0.43,0.39-0.86,0.78-1.29,1.17
							c-1.75,1.58-3.51,3.15-5.27,4.72c-12.76,11.47-25.83,22.57-38.95,33.59c-0.51,0.44-1.03,0.87-1.54,1.3
							c-0.95,0.81-1.91,1.62-2.86,2.42h-1.97c1.33-1.13,2.66-2.27,3.99-3.41c0.75-0.65,1.5-1.29,2.24-1.94v-0.01
							c12.7-11,25.31-22.13,37.6-33.59c1.66-1.57,3.31-3.15,4.96-4.73c3.75-3.61,7.46-7.26,11.08-10.98c0.97-0.99,1.94-1.99,2.9-3
							l3.31-3.58l3.83-4.14l10.98-11.88l14.17-15.38l21.84-23.7c3.8-6.18,8.21-12.83,12.75-18.71c2.27-3.03,4.51-6,6.43-9.02
							c2.01-3.11,3.31-5.89,4.76-9.63c2.03-4.16,4.32-7.04,6.67-10.19l7.11-8.92c1.03-1.29,2.07-2.58,3.09-3.87
							c3.64-4.57,7.22-9.13,10.54-13.86c4.25-6.03,8.13-12.27,11.31-18.79c3.09-6.37,5.66-13.66,8.71-20.6
							c2.98-6.99,6-14.03,10-20.93c2.01-3.44,4.33-6.85,7.14-9.95c2.75-3.13,6.23-5.8,9.05-7.98c5.72-4.55,12.05-9.33,15.06-14.25
							c0.19-0.36,0.84-1.71,1.56-2.75c0.66-0.97,1.31-1.8,1.95-2.59l3.78-4.43c2.47-2.83,4.84-5.61,7.07-8.49
							c2.22-2.87,4.29-5.83,6.16-8.88c1.95-3.04,3.18-6.13,5.59-9.91c4.35-6.78,9.37-12.6,14.42-18.34
							c5.07-5.71,10.28-11.2,15.38-16.67c2.53-2.75,5.04-5.5,7.29-8.28c1.13-1.42,2.11-2.7,2.96-4.16c1.1-1.89,2.44-3.6,3.8-5.13
							c5.5-6.07,11.7-10.68,18.1-15.05c3.22-2.15,6.5-4.19,9.93-6.06c1.73-0.94,3.45-1.85,5.41-2.67c0.49-0.21,1.01-0.41,1.6-0.6
							c0.3-0.09,0.63-0.19,1.04-0.28c0.48-0.03,0.78-0.28,2.27,0c0.7,0,2.74,1.43,2.75,3.18c0.05,0.58-0.02,0.99-0.13,1.43
							c-0.06,0.23-0.15,0.45-0.25,0.67c-0.06,0.14-0.11,0.2-0.17,0.31c2.46,3.56,3.86,7.35,5.09,10.99
							c1.47,4.51,2.59,8.97,3.93,13.24c0.66,2.14,1.38,4.23,2.21,6.2c0.42,1,0.88,1.94,1.37,2.85c0.05,0.11,0.34,0.59,0.25,0.5
							l0.47,0.65c0.28,0.26,0.15,0.18,0.53,0.44c1.06,0.77,3.17,1.14,5.58,1.67c1.2,0.29,2.55,0.62,3.97,1.43
							c1.39,0.66,2.83,2.4,3.36,3.56l12.59,24.46c2.21,4.02,4.22,7.89,7.22,11.02c1.47,1.65,3.04,3.19,4.7,4.52
							c0.83,0.66,1.7,1.28,2.57,1.76c0.77,0.48,2.02,0.94,2.27,0.97l1.01,0.15l0.5,0.6l38.24,46.77
							c12.77,15.57,25.43,31.24,38.37,46.66l0.08,0.09l0.06,0.11c4.29,7.13,8.47,14.31,12.53,21.57c2.03,3.63,4.03,7.28,5.96,10.98
							c2.02,3.56,3.58,7.81,5.75,10.71c4.71,6.28,11.61,11.03,18.23,15.95c6.68,4.91,13.48,9.88,19.62,15.71
							c3.07,2.91,5.99,6.01,8.63,9.36c2.58,3.34,5.05,6.31,8.02,9.07c5.81,5.55,12.65,9.95,19.83,13.82
							c5.54,3.02,11.34,5.67,17.07,8.81h0.01c1.69,0.93,3.38,1.9,5.06,2.94c1.82,1.15,3.63,2.36,5.36,3.74l1.29,1.06
							c0.22,0.16,1.31,1.06,1.78,2.35C1701.21,994.33,1700.55,995.94,1700.11,997.17z"/>
						<path class="st0" d="M1695.03,994.19C1695.19,994.35,1695.13,994.33,1695.03,994.19L1695.03,994.19z"/>
					</g>
				</g>
				<path class="st1" d="M1468.3,892.28c-3.46-12.76-12.98,4.74-18.51,6.53c-5.54,1.8,5.22-54.49,6.17-74.02
					c0.95-19.52-7.54-1.3-25.64,12.41c-18.1,13.71,9.5-31.33,14.47-44.63c4.97-13.29,2.15-27.06-12.57-56.02
					c-10.4-20.47-6.1-37.78-2.68-46.18v-0.01c1.41-3.47,2.68-5.42,2.68-5.42s-9.56,5.36-17.29,10.46
					c-7.73,5.09-14.95,12.73-22.47,23.11c-7.51,10.39-17.22,16.61-25.83,29.03c-8.62,12.41-21.45,31.8-31.43,43.87
					c-9.99,12.07-34.31,36.17-41.24,48.94c-6.94,12.77-14.62,40.53-25.64,50.67c-2.92,2.69-6.85,7.15-11.17,12.48
					c-11.95,14.76-26.88,36.21-31.7,45.43c-3.66,7-15.47,22.21-29.57,38.14c-8.54,9.63-17.91,19.53-26.81,28.01
					c-1.4,1.33-2.79,2.63-4.16,3.88c-1.36,1.26-2.71,2.46-4.03,3.62c-1.02,0.89-1.97,1.74-2.86,2.55
					c-5.46,4.96-8.54,8.35-9.91,10.58c-0.29,0.47-0.51,0.89-0.64,1.26c-1.62,4.17,5.57,2.3,12.47-0.08h0.01
					c0.79-0.27,1.57-0.55,2.34-0.83c3.89-1.41,6.48-2.87,8.76-4.54c2.18-1.61,4.08-3.41,6.56-5.54c1.1-0.94,2.31-1.95,3.71-3.04
					c1.79-1.39,3.89-2.9,6.46-4.56c7.36-4.76,13.47-7.92,19.24-11.18c4.2-2.37,8.22-4.79,12.42-7.92c0.89-0.66,1.78-1.35,2.69-2.08
					c1-0.81,2.51-2.08,4.45-3.73c8.13-6.96,23.76-20.74,40.35-35.53c23.17-20.66,48.21-43.3,57.28-52.09
					c17.09-16.57,0.29,4.16-5.6,14.87c-5.9,10.7-11.5,14.05-15.78,32.32c-0.68,2.89-1.23,5.58-1.71,8.13
					c-4.14,3.02-9.35,6.89-14.42,10.63c-3.46,2.55-6.49,5.38-9.3,8.57c-6.83,7.74-12.35,17.55-19.65,30.4h-0.01
					c-1.41,2.5-2.9,5.12-4.48,7.86c-13.02,22.61-16.42,9.43-33.03,16.08c-1.1,0.44-2.19,0.96-3.28,1.55
					c-2.51,1.38-4.98,3.13-7.32,5.08c-1.13,0.94-2.22,1.93-3.28,2.95c-1,0.95-1.97,1.94-2.89,2.93h-0.01
					c-8.44,9.06-13.42,18.81-9.33,16.69c6.4-3.32,11.04-6.33,11.86-3.8c0.82,2.54-14.48,13.3-27.54,14.25
					c-7.67,0.56-12.4,1.45-17.25,4.64h102.99c9.6-10.86,17.62-23.18,30.35-31.71c22.31-14.95,3.8,14.96-9.97,30.63
					c-0.32,0.37-0.64,0.73-0.94,1.08h170.25c-0.01-0.29-0.02-0.58-0.03-0.87c-0.07-2.48-0.03-4.99-0.02-7.47
					c0.02-1.99,0.02-3.97-0.08-5.9c-0.29-5.75-1.39-11.11-5.28-15.32c-9.88-10.68-7.93-25.41-2.47-37.04
					c5.46-11.63-1.9-12.58-6.65-26.35s1.27-26.83-2.37-33.63c-3.64-6.81-12.14,1.25-13.55-0.28c-1.41-1.52-5.6,1.7-17.69,10.65
					c-12.09,8.94-17.82,3.1-9.75-6.42c8.06-9.52-25.64,15.04-36.09,18.99c-10.44,3.96,40.04-48.9,50.01-52.46
					c9.97-3.56-10.44,15.91-14.27,24.19c-3.83,8.29,24.96-24.67,35.16-28.7c10.21-4.03-6.4,11.22-15.5,25.58
					c-9.09,14.36,25.48-7.06,41.62-13.24C1473.05,924.56,1471.76,905.04,1468.3,892.28z M1289.78,995.31
					c-9.73,13.29-29.43,30.62-42.49,42.25c-13.06,11.64-6.12-0.75-0.89-6.53c3.65-4.03,10.34-11.78,17.91-19.57h0.01
					c3.26-3.37,6.7-6.76,10.13-9.85c2.96-2.66,6.11-6.45,9.28-10.71v-0.01c5.71-7.67,11.49-16.88,16.35-23.89
					C1298.23,977.59,1296.75,985.79,1289.78,995.31z"/>
			</g>
			<g>
				<path class="st0" d="M1901.7,1067.18c-0.28-0.98-0.65-1.46-1.05-1.77C1902.09,1068.49,1902.47,1069.78,1901.7,1067.18z"/>
				<path class="st0" d="M1734.66,1079h5.28C1741.84,1071.16,1740.94,1073.63,1734.66,1079z M1868.94,855.16
					c0,0-21.62-18.32-24.83-24.66c-0.12-0.01-0.18-0.02-0.28-0.03c-0.18-0.01-0.26-0.02-0.37-0.03c0.03-1.38-0.01-1.59-0.19-0.07
					c-0.07,0-0.16,0.01,0,0.05c-0.17,0.05-0.65,0.12-1.98,0.27c-6.9,0.74-6.9,8.91-18.98,17.82c-12.09,8.92-10.36,23.78-10.36,23.78
					s-10.35,8.16-14.37,14.84c-4.04,6.7-20.14,23.04-22.45,39.37c-2.3,16.35-2.3,5.21-9.78,10.4c-5.67,3.95-2.88,2-7.68,5.01
					c-0.03,0.02-0.06,0.04-0.09,0.06c-0.07,0.04-0.13,0.08-0.2,0.12l-0.02,0.01c-1.48,0.39-2.99,0.85-4.53,1.44
					c-0.27,0.1-0.54,0.24-0.82,0.34c-1.28,0.52-2.56,1.06-3.85,1.73c-0.71,0.37-1.39,0.85-2.09,1.28c-0.86,0.51-1.73,0.99-2.57,1.6
					c-1.54,1.11-3.05,2.37-4.47,3.82c-11.2,11.47-7.63,7.26-10.81,9.64c0-0.18-0.01-0.18-0.01,0.01c-0.73,0.54-5.86,4.92-7.01,5.79
					c-0.28,0.21-0.56,0.39-0.84,0.59c-0.87,0.63-1.75,1.26-2.61,1.83c-0.43,0.29-0.86,0.54-1.28,0.8c-0.71,0.46-1.42,0.91-2.12,1.33
					c-1.05,0.63-2.08,1.24-3.11,1.85c-0.07,0.03-0.14,0.08-0.21,0.12c-0.12,0.07-0.24,0.14-0.36,0.21c-0.96,0.57-1.9,1.13-2.81,1.7
					c-0.5,0.3-0.97,0.62-1.45,0.94c-0.53,0.34-1.08,0.69-1.59,1.03c-0.61,0.45-1.18,0.92-1.77,1.38c-0.34,0.26-0.71,0.52-1.02,0.8
					c-0.89,0.75-1.72,1.56-2.5,2.45c-0.36,0.39-0.67,0.75-0.96,1.06c-0.16,0.19-0.28,0.32-0.42,0.47c-0.11,0.12-0.22,0.24-0.33,0.35
					c-0.13,0.14-0.23,0.25-0.35,0.36c-0.08,0.08-0.16,0.17-0.22,0.22c-0.1,0.1-0.18,0.17-0.27,0.23c-0.06,0.05-0.12,0.11-0.18,0.16
					c-0.07,0.04-0.13,0.06-0.19,0.09c-0.05,0.03-0.12,0.06-0.17,0.07c-0.04,0.01-0.08,0.01-0.12,0.01c-0.06,0-0.14-0.01-0.2-0.03
					c-0.01,0-0.02-0.02-0.04-0.02c-0.87-0.44-1.7-3.08-9.15-3.87h-0.01c-0.38-0.04-0.78-0.08-1.2-0.11
					c-0.74-0.05-1.38-0.09-1.97-0.12c-0.23-0.02-0.44-0.03-0.65-0.04c-0.34-0.02-0.67-0.04-0.95-0.04c-0.23,0-0.45-0.01-0.64-0.01
					c-0.25,0-0.47,0.01-0.68,0.02c-0.14,0.01-0.31,0.02-0.43,0.03c-0.28,0.04-0.53,0.1-0.74,0.18c-0.08,0.03-0.15,0.08-0.22,0.12
					c-0.13,0.07-0.26,0.14-0.36,0.24c-0.05,0.05-0.1,0.1-0.14,0.16c-0.24,0.29-0.41,0.68-0.55,1.19h-0.01
					c-0.44,1.55-0.71,4.25-2.46,8.79c0,0,0,0,0,0.01c-0.28,0.72-0.58,1.48-0.94,2.29c-0.01,0.03-0.03,0.07-0.04,0.09
					c-0.42,0.96-0.89,1.98-1.44,3.06c-0.11,0.23-0.26,0.49-0.39,0.74c-0.47,0.92-0.97,1.86-1.55,2.89
					c-0.37,0.66-0.82,1.38-1.24,2.08c-0.43,0.72-0.82,1.4-1.31,2.15c-0.96,1.54-2.03,3.16-3.23,4.89c-19.94,28.74,0,0-32.22,25.63
					c-1.84,1.47-3.49,2.74-5.04,3.91c-0.49,0.37-0.93,0.69-1.41,1.04c-1,0.75-1.95,1.44-2.83,2.05c-0.45,0.32-0.88,0.63-1.29,0.91
					c-0.81,0.56-1.57,1.04-2.27,1.49c-0.32,0.2-0.65,0.43-0.95,0.6c-0.86,0.52-1.64,0.97-2.33,1.31c-0.05,0.04-0.13,0.08-0.18,0.11
					c-0.74,0.37-1.37,0.64-1.92,0.83c-0.17,0.06-0.29,0.09-0.43,0.14c-0.38,0.1-0.73,0.18-1.02,0.22c-0.13,0.02-0.25,0.03-0.37,0.03
					c-0.26,0.01-0.49-0.01-0.69-0.07c-0.08-0.02-0.16-0.02-0.22-0.05c-0.25-0.09-0.44-0.21-0.62-0.38
					c-0.44-0.43-0.63-1.05-0.86-1.64c-0.01-0.01-0.02-0.02-0.02-0.04c-0.06-0.15-0.13-0.3-0.2-0.43c-0.05-0.1-0.11-0.17-0.17-0.24
					c-0.06-0.09-0.11-0.19-0.19-0.25c-0.13-0.12-0.28-0.2-0.46-0.26c-0.01,0-0.03,0-0.03,0c-0.07-0.01-0.17,0-0.26-0.01
					c-0.16,0-0.33,0-0.53,0.04c-0.12,0.03-0.26,0.07-0.39,0.11c-0.23,0.08-0.5,0.19-0.79,0.33c-0.16,0.08-0.29,0.13-0.45,0.22
					c-0.49,0.27-1.03,0.6-1.69,1.05c-11.52,7.92-22.25,0-22.25,0l-8.44,11.88c0,0-0.11,0.19-0.26,0.43
					c-0.01,0.03-0.03,0.06-0.06,0.1c-1.24,2.1-6.2,10.3-12.85,19.45h72.54c4.88-4.08,9.27-7.53,11.44-8.59
					c4.28-2.08-0.01,2.92-5.61,8.59h20.16c2.03-2.62,3.91-5.14,5.75-7.37c6.47-7.83,17.05-19.02,17.05-19.02
					s25.56-18.25,31.64-24.34c6.09-6.11,14.98-28.07,21.95-36.35c6.98-8.31,12.62,1.84,12.62,1.84
					c-22.46,17.92-19.44,27.85-26.89,34.17c7.34-5.9,12.61-9.3,12.61-9.3s13.8-17.91,32.71-35.33c7.85-7.2-4.59,9.6-12.32,21.35
					c-7.74,11.73-17.84,17-28.64,26.12c-10.81,9.12-15.87,14.28-27.79,23.51c-11.92,9.24-8.01,3.8,6.65-11.2
					c5.54-5.64,11.05-10.49,15.79-14.35c-7.35,5.65-16.71,7.06-20,11.43c-3.45,4.58-9.51,9.41-10.16,12
					c-0.64,2.59-4.77,5.97-8.72,11c-3.95,5.04-3.7,2.08-14.94,12.51c-1.18,1.1-2.33,2.21-3.46,3.33h48.46
					c1.18-1.31,2.46-2.55,3.82-3.67c0,0,12.73-8.23,22.92-10.78c10.15-2.56,3.72-14.93,6.76-19.01c3.06-4.09,18.52-10.1,27.38-18.03
					c8.85-7.95,8.98-13.23,22.74-24.9c13.77-11.68,7.81-3.22,11.82-0.39c4.03,2.82-15.12,18.8-15.12,18.8s-10.78,7.45-20.69,18.84
					c-9.91,11.39-5.05,9.68-6.24,19.64c-1.18,9.98,0,0-15.62,8.73c-12.18,6.8-5.45,5.77-4.75,10.77h159.73
					c-1.04-1.84-2.32-4.36-3.59-8.66c-0.66-2.24-1.35-3.88-2.04-5.29c0.2,0.07,0.41,0.21,0.6,0.35c-1.45-3.12-3.98-8.07-7.5-12.71
					c-7.02-9.25-7.56-12.92-7.56-12.92v-16.12c0,0-2.6-4.1-5.84-8.51l-0.01-0.01c-1.07-1.46-2.21-2.94-3.35-4.32
					c-2.37-2.86-3.52-3.16-4.82-3.82c-1.27-1.25-2.67-2.61-4.13-4.06c-0.34-0.45-0.64-0.83-1.02-1.4c-5.38-7.91-6.91-9.04-6.91-9.04
					s-6.23-4.68-10.85-9.44c0,0-16.67-52.92-17.81-62.57c-1.15-9.65-10.26-21.46-4.52-34.08c5.76-12.63,8.4-8.17,14.56-20.06
					c0.65-1.25,2.26-27.08,2.53-34.8c1.72,6.2,16.59,21.13,20.93,27.4c10.34,14.97,14.12,29.48,15.26,35.43
					c2.3,11.98,20.45,9.58,25.47,20.99c-3.64,5.4-4.5-0.11-3.22,5.66c1.54,6.93,2.87,13.35,8.34,17.57
					c3.56,2.75-1.11,15.14,0.82,15.58c0.62,0.89,1.27,1.82,1.98,2.8v-53.12C1899.01,889.65,1893.92,885.34,1868.94,855.16z
					 M1718.29,1048l-6.62,4.98c0,0,4.39-9.02,8.7-12.15c4.32-3.13,8.4-8.37,12.81-10.71c4.38-2.35,7.34-4.79,12.43-7.2
					c5.12-2.42,2.78-0.83,6.97-5.01c4.21-4.2,9.46-8.49,10.43-9.39c0.98-0.91,0.65-4.09,2.36-4.8c1.7-0.73,11.28-14.85,11.28-14.85
					l13.56-2.74c-4.21,3.37-16.75,16.47-19.92,20.27c-3.16,3.81-8.24,6.5-12.52,9.89c-4.29,3.39-1.89,5.74-8.1,7.77
					c-6.21,2.03-10.85,5.46-13.71,8.7c-2.89,3.25-4.26,3.66-9.25,7.14C1721.71,1043.36,1718.29,1048,1718.29,1048z M1826.33,958.38
					c-14.32,11.41-12.38,17.73-17.15,21.77c-4.76,4.02-11.15,4.86-13.35,7.77c-2.19,2.92-6.05,6-6.46,7.64
					c-0.42,1.65-3.04,3.8-5.57,7.02c-2.51,3.2-2.35,1.32-9.5,7.95c-7.16,6.63-12.78,14.17-17.57,16.29
					c-4.77,2.12-11.72,3.75-12.9,6.23c-1.16,2.49-6.27,8.22-9.32,9.82c0,0,8.64-13,9.93-14.21c1.3-1.21,4.42-0.03,12.41-4.25
					c7.98-4.23,12.36-11.48,16.47-16.46c4.11-4.97,10.85-12.1,10.85-12.1s16.26-11.63,20.13-15.52c3.88-3.87,9.55-17.85,13.99-23.13
					C1822.73,951.92,1826.33,958.38,1826.33,958.38z"/>
				<g>
					<path class="st1" d="M1913,1007.77c-0.53-0.37-1.25-0.81-2.21-1.34c-7.74-4.32-7.16,0.62-7.74-4.32
						c-0.6-4.95,1.81-4.09-3.09-9.74c-4.92-5.64-10.25-9.34-10.25-9.34s-9.5-7.91-7.5-9.31c1.99-1.41-0.97-5.6,5.86,0.19
						c6.81,5.79,6.89,8.4,11.26,12.34c4.4,3.93,12.06,6.91,13.57,8.94c0.04,0.05,0.07,0.1,0.1,0.16V1007.77z"/>
					<path class="st1" d="M1913,987.02c-2.14-1.39-4.64-2.62-7.5-3.56c-5.97-1.96-3.67-4.21-7.78-7.46
						c-4.11-3.26-8.98-5.83-12.01-9.49c-3.05-3.65-15.07-16.22-19.12-19.44l13,2.63c0,0,9.2,13.55,10.84,14.23
						c1.64,0.69,1.32,3.73,2.25,4.6c0.94,0.88,5.99,5,10.02,9.02c4.03,4.02,1.79,2.5,6.68,4.81c1.34,0.63,2.52,1.27,3.62,1.9V987.02
						z"/>
				</g>
			</g>
		</g>
		<g>
			<path class="st0" d="M1534.43,983.43c0.19-1.15,0.3-2.2,0.34-3.22C1534.85,978.03,1533.85,978.41,1534.43,983.43z"/>
			<path class="st0" d="M1494.26,1067.42c-1.8-1.8,0.38-3.73,6.3-9.65c5.91-5.91,0.64-7.84-4.25-8.61
				c-4.89-0.78-0.51-3.47-0.77-6.69s-3.86-5.79-6.82-7.2c-2.95-1.42-0.64-5.02,1.42-10.94c2.05-5.91-4.51-4.63-4.51-8.62
				c0-3.98-0.51-5.78-4.11-12.6c-3.6-6.82-1.16-16.46-1.55-19.81c-0.38-3.34-0.76,5.28-1.66,9.78c-0.9,4.5-1.68,8.36-2.19,13.63
				c-0.52,5.27-6.05,11.84-10.81,18.27c-4.76,6.42,2.71,3.86,6.31,6.17c3.6,2.32,0.64,3.09-1.93,4.12
				c-2.57,1.02-5.79,3.86-5.45,8.74c0.33,4.89-4.33,4.51-11.53,3.86c-7.2-0.64-1.67,3.47,2.7,6.95c4.37,3.47,8.1,5.4,8.75,8.1
				c0.64,2.7-2.83,4.24-7.72,2.83c-1.17-0.34-2.02-0.69-2.7-0.99c-2.17-0.99-2.59-1.6-5.91-0.43c-4.38,1.55-2.58,4.51,2.31,5.63
				c1.14,0.26,2.4,0.48,3.68,0.7c4.22,0.74,8.62,1.56,9.31,4.22c0.56,2.18-4.76,2.91-9.29,3.25c-2.69,0.21-5.11,0.27-5.83,0.41
				c-0.25,0.05-0.29,0.21-0.17,0.46h48.18c-1.3-0.43-2.36-1-2.79-1.94c-1.55-3.34,5.91-4.11,7.45-7.1
				C1502.23,1066.96,1496.06,1069.22,1494.26,1067.42z M1469.05,1059.7c-3.92,2.51-3.09-3.28-3.22-4.69
				c-0.13-1.42,2.81-1.73,3.22-1.93C1470.72,1052.24,1472.97,1057.19,1469.05,1059.7z M1470.59,1047.03
				c-6.88,2.38-4.63-2.18-4.82-3.73c-0.2-1.54,2.31-1.15,4.56-0.77c2.25,0.39,4.12-2.38,4.12-2.38c1.62-1.66,2.96,0.77,3.6,2.77
				C1478.69,1044.91,1477.47,1044.65,1470.59,1047.03z M1555.86,1058.03c-2.96-8.1-1.67-7.71,0.77-13.37
				c2.45-5.65-4.88-8.63-10.16-7.08c-5.27,1.55-3.98-8.75-1.41-16.08c2.57-7.33-3.34-9.64-7.98-25.85c-1.6-5.6-2.34-9.55-2.65-12.22
				c-0.43,2.62-1.31,5.81-3,10.81c-2.45,7.2-1.68,10.8-1.04,18c0.64,7.21-5.4,12.09-6.81,15.05c-1.42,2.96,2.96,2.7,5.92,5.14
				c2.96,2.45-1.93,2.97-7.47,4.89c-5.53,1.93-1.67,3.74,0.27,8.37c1.93,4.63-2.97,1.8-11.97,3.98c-9,2.19,8.23,8.75,9.9,14.41
				c1.68,5.65-7.07-2.97-13.76,1.67c-5.89,4.08,6.39,8.56,13.26,13.25h29.42c-0.65-2.89,3.78-6.37,6.97-8.11
				C1560.62,1068.45,1558.82,1066.13,1555.86,1058.03z M1527.76,1046.13c-5.91-0.06-3.35-3.98-1.42-5.91
				c1.93-1.93,7.92,1.54,7.92,1.54s1.6,1.8,1.54,2.96C1535.73,1045.88,1533.68,1046.19,1527.76,1046.13z"/>
		</g>
		<g>
			<path class="st0" d="M1083.72,1002.66c-0.03,1.02-0.15,2.07-0.34,3.22C1082.8,1000.85,1083.81,1000.47,1083.72,1002.66z"/>
			<path class="st0" d="M1105.59,1067.11c2.44-5.65-4.89-8.63-10.16-7.09c-5.27,1.55-3.99-8.74-1.42-16.08
				c2.57-7.33-3.34-9.64-7.98-25.85c-1.59-5.6-2.34-9.55-2.65-12.21c-0.43,2.61-1.3,5.8-3,10.8c-2.45,7.2-1.67,10.8-1.04,18
				c0.64,7.21-5.39,12.1-6.81,15.05c-1.41,2.96,2.96,2.7,5.92,5.15c2.96,2.44-1.93,2.96-7.46,4.88c-5.53,1.93-1.67,3.73,0.26,8.37
				c1.93,4.63-2.96,1.8-11.96,3.98c-5.05,1.23-1.84,3.84,2.25,6.89h37.31c0.95-0.8,1.91-1.61,2.86-2.42
				c0.51-0.43,1.03-0.86,1.54-1.3c-0.11-0.62-0.15-1.14-0.14-1.63v-0.01C1103.16,1071.61,1104.17,1070.36,1105.59,1067.11z
				 M1076.72,1068.58c-5.92-0.07-3.35-3.99-1.42-5.92c1.93-1.93,7.91,1.54,7.91,1.54s1.61,1.8,1.54,2.96
				C1084.69,1068.32,1082.63,1068.64,1076.72,1068.58z M1027,1065.36c-0.64-2-1.98-4.42-3.6-2.76c0,0-1.86,2.76-4.11,2.38
				c-2.26-0.39-4.76-0.78-4.57,0.76c0.19,1.55-2.06,6.11,4.82,3.74C1026.42,1067.09,1027.65,1067.35,1027,1065.36z M1018,1075.52
				c-0.4,0.2-3.34,0.51-3.22,1.93c0.03,0.33,0.01,0.9,0.01,1.55c-0.01,2.12,0.2,5.07,3.21,3.15c1.35-0.87,1.98-2.04,2.14-3.15
				C1020.43,1076.9,1019.09,1074.97,1018,1075.52z M1027,1065.36c-0.64-2-1.98-4.42-3.6-2.76c0,0-1.86,2.76-4.11,2.38
				c-2.26-0.39-4.76-0.78-4.57,0.76c0.19,1.55-2.06,6.11,4.82,3.74C1026.42,1067.09,1027.65,1067.35,1027,1065.36z M1018,1075.52
				c-0.4,0.2-3.34,0.51-3.22,1.93c0.03,0.33,0.01,0.9,0.01,1.55c-0.01,2.12,0.2,5.07,3.21,3.15c1.35-0.87,1.98-2.04,2.14-3.15
				C1020.43,1076.9,1019.09,1074.97,1018,1075.52z"/>
		</g>
	</g>
	<g>
		<path class="st0" d="M456.27,975.59c-2.38,6.44-3.95,12.3-4.24,17.43c-1.01,18.2-18.2,24.26-23.76,13.65
			c-0.26-0.49-0.48-1.04-0.67-1.63v-0.01C438.87,988.29,449.96,973.96,456.27,975.59z"/>
		<path class="st0" d="M484.02,1011.02c6.09,7.17,12.9,14.83,20.03,22.4c-1.64,0.05-3.14-0.1-4.5-0.47
			c-13.14-3.53-52.07-3.53-32.35-14.15C470.75,1016.89,476.61,1014.24,484.02,1011.02z"/>
	</g>
	<g>
		<path class="st0" d="M848.8,971.17c-0.38-2.26-0.59-4.32-0.67-6.33C847.96,960.54,849.94,961.28,848.8,971.17z"/>
		<path class="st0" d="M854.7,992.39c-1.46-4.31-2.62-7.94-3.52-11.09c-1.77,3.85-3.25,7.45-4.31,10.7
			c-3.27,10.03,0.98,9.53,8.97,4.01C855.51,994.85,855.13,993.65,854.7,992.39z M962.43,1008.79c-0.91-6.57-2.05-12.29-3.33-18.67
			c-0.78-3.91-1.36-9.38-1.84-13.72v-0.01c-0.6-5.48-1.03-9.15-1.45-5.48c-0.12,1.03-0.1,2.36-0.01,3.92
			c0.38,6.92,2.12,18.43-0.56,28.57C957.63,1005.22,960.03,1007.03,962.43,1008.79z"/>
	</g>
</g>
<g id="Layer_2">
	<rect class="st2" width="1920" height="1079"/>
</g>
<g id="Sun" class="st3">
	<path class="st4" d="M1719.14,116.82c30.81-0.78,57.82,27.37,56.98,58.31c-0.9,33.09-26.58,57.91-58.23,57.43
		c-33.46-0.5-57.62-26.59-57.39-58.88C1660.73,141.69,1687.85,115.45,1719.14,116.82z"/>
	<path class="st4" d="M1651.33,168.53c-10.8-5.2-16.96-3.91-19.04,7.51c-1.3,7.12-5.67,11.65-12.96,12.56
		c-6.52,0.81-10.75-2.57-13.57-8.2c0.7-0.53,1.1-1.05,1.32-0.98c13.08,4.2,14.21,3.56,18.54-10.47c2.08-6.75,8-11.51,14.29-10.69
		C1645.27,158.96,1649.89,161.27,1651.33,168.53z"/>
	<path class="st4" d="M1657.06,202.39c-13.06,1.48-15.37,5.09-11.81,17.42c1.72,5.97,0.16,10.95-4.31,15.19
		c-4.21,4-9.02,4.6-14.28,2.76c-1.22-0.43-2.73-0.94-2.73-2.58c0-1.51,1.29-1.31,2.4-1.54c10.67-2.22,12.31-5.03,9.3-15.66
		c-3.08-10.88,3.47-20.05,13.93-19.71C1652.65,198.38,1655.01,199.41,1657.06,202.39z"/>
	<path class="st4" d="M1770.39,75.88c-1.19,0.87-2.44,1.66-3.55,2.62c-5.92,5.15-6.01,9.5-0.36,15.01
		c9.17,8.93,9.51,18.53,1.07,25.05c-1.69,1.31-3.55,1.85-5.42,2.3c-1.3,0.31-3.2,1.13-4.11-0.95c-1.07-2.44,1.3-2.31,2.4-3.11
		c6.96-5.07,7.3-10.11,0.52-16.17c-5.67-5.06-7.24-11.12-5.45-18.11c1.3-5.08,5.59-7.28,10.2-8.75
		C1767.78,73.09,1769.76,73.11,1770.39,75.88z"/>
	<path class="st4" d="M1663.26,135.73c-8.05-10.86-11.45-11.09-21.07-1.95c-7.77,7.39-20.3,5.29-23.91-4.05
		c-0.74-1.91-1.49-4.61,0.06-5.71c2.3-1.63,2.99,1.27,4.24,2.7c4.23,4.84,10.2,4.73,15.08-0.53c4.19-4.51,8.8-7.6,15.24-6.67
		C1661.16,120.72,1665.68,127.51,1663.26,135.73z"/>
	<path class="st4" d="M1678.86,229.94c-1.66,1.42-3.13,2.71-4.63,3.97c-4.73,3.98-4.71,8.14-0.66,12.61
		c2.52,2.78,5.33,5.43,7.24,8.6c4.83,8.03-2.19,20.17-11.39,20.08c-1.02-0.01-2.43,0.48-2.9-0.79c-0.37-0.99,0.05-2.01,1.04-2.88
		c9.51-8.3,9.39-9.01,0.46-18.28c-3.95-4.1-6.65-8.84-4.4-15.1c2.08-5.8,5.73-9.29,11.95-9.82
		C1676.71,228.23,1677.83,228.36,1678.86,229.94z"/>
	<path class="st4" d="M1796.6,190.4c-2.17,0.22-4.63-0.24-6.53-1.96c-1.89-1.72-5.27-3.47-3.95-6.23c1.02-2.14,3.86,0.28,5.81,0.71
		c6.52,1.44,10.83-1.57,12.01-8.76c1.79-10.91,10.93-16.43,20.49-12.42c1.24,0.52,2.69,0.75,3.25,2.14
		c0.72,1.79,3.84,2.81,2.53,5.01c-1.6,2.69-3.51-0.22-5.15-0.67c-7.41-2.03-11.63,0.71-13.06,8.87
		C1810.59,185.25,1804.67,190.48,1796.6,190.4z"/>
	<path class="st4" d="M1714.29,61.47c0.31,1.29,0.22,2.26-0.57,3.63c-5.17,8.89-2.75,13.84,7.65,15.86c4.6,0.89,8.15,3,10.61,7.09
		c5.25,8.71,2.52,15.75-8.08,19.33c2.91-5.67,6.64-11.14-0.14-16.35c-1.51-1.17-2.98-1.66-4.77-1.93
		c-8.44-1.28-13.22-5.49-14.37-12.46C1703.48,69.76,1705.87,66.01,1714.29,61.47z"/>
	<path class="st4" d="M1779.9,146.58c0.82-1.21,2.01-0.78,3.04-0.87c8.8-0.75,11.62-4.76,9.33-13.3
		c-3.02-11.27,0.33-18.74,9.53-21.6c2.25-0.7,4.33-0.9,6.49,0.14c1.52,0.73,4.13,0.4,4.04,2.75c-0.1,2.65-2.68,1.45-4.16,1.75
		c-8.15,1.62-10.22,5.82-7.26,14.99c3.87,12-4.12,21.78-16.06,19.65C1782.63,149.68,1780.35,149.4,1779.9,146.58z"/>
	<path class="st4" d="M1746.89,236.6c1.14,12.8,4.04,14.69,15.83,10.85c5.79-1.89,13.45,0.47,16.78,5.21
		c3.95,5.62,3.95,11.07-0.8,16.3c-1.76-1.38-0.91-3.36-1.28-5.04c-1.6-7.12-6.49-9.79-13.41-7.28c-6.05,2.2-11.73,2.34-17-2.07
		c-4.6-3.84-4.5-8.83-3.99-14.1C1743.26,238.03,1744.27,236.76,1746.89,236.6z"/>
	<path class="st4" d="M1712.43,241.34c-0.83,2.3-1.34,3.73-1.87,5.15c-2.79,7.48-1.08,10.65,6.44,12.92
		c4.65,1.4,9.44,2.55,12.66,6.94c5.62,7.65,1.8,18.62-7.84,20.65c1.09-2.14,2.26-3.96,2.98-5.93c1.9-5.21,0.7-9.31-4.78-11.45
		c-2.28-0.89-4.65-1.59-7-2.28c-6.21-1.81-9.83-5.84-10.32-12.34C1702.14,247.47,1704.17,244.56,1712.43,241.34z"/>
	<path class="st4" d="M1658.01,79.71c1.83,12.74,5.15,14.9,17.81,11.92c7.08-1.67,13.44,0.6,16.76,6.35
		c3.03,5.26,2.99,10.38-1.51,15.15c-1.71-1.47-0.85-3.17-1.18-4.6c-1.77-7.67-6.03-10.24-13.84-8.2
		c-10.61,2.78-17.01,0.83-20.62-6.86C1653.15,88.63,1652.92,83.71,1658.01,79.71z"/>
	<path class="st4" d="M1817.36,226.21c-7.63-10.59-13.23-9.43-20.16-1.85c-10.04,10.99-22.37,3.76-24.8-4.79
		c-0.44-1.55-1.47-3.75,0.39-4.73c1.66-0.88,2.27,1.2,3.31,2.32c6.02,6.5,9.93,6.32,16.62-0.39c7.49-7.53,14.29-8.62,21.04-3.15
		C1817.67,216.8,1818.94,220.93,1817.36,226.21z"/>
</g>
</svg>
